<svg xmlns="http://www.w3.org/2000/svg" width="350" height="160.713" viewBox="0 0 350 160.713">
  <g id="Group_425" data-name="Group 425" transform="translate(-901.796 -316.538)" opacity="0.22">
    <path id="Path_4341" data-name="Path 4341" d="M932.476,349.82a1.383,1.383,0,0,1-.944-2.393,10.118,10.118,0,0,0,3.214-6.573,9.335,9.335,0,0,0-2.8-.562c-2.715,0-6,2.207-6,4.946a1.383,1.383,0,1,1-2.766,0c0-2.739-3.283-4.946-6-4.946a9.356,9.356,0,0,0-2.8.562,10.137,10.137,0,0,0,3.217,6.573,1.383,1.383,0,0,1-1.888,2.02,13.019,13.019,0,0,1-4.131-9.483,1.385,1.385,0,0,1,.764-1.239,11.911,11.911,0,0,1,4.838-1.2,9.591,9.591,0,0,1,7.387,3.71,9.59,9.59,0,0,1,7.384-3.71,11.92,11.92,0,0,1,4.841,1.2,1.385,1.385,0,0,1,.764,1.239,13.03,13.03,0,0,1-4.131,9.483,1.377,1.377,0,0,1-.944.373" transform="translate(19.622 42.116)" fill="#91b40d"/>
    <path id="Path_4342" data-name="Path 4342" d="M924.563,359.27a13,13,0,0,1-12.989-12.989,1.385,1.385,0,0,1,.764-1.239,11.919,11.919,0,0,1,4.841-1.2,9.59,9.59,0,0,1,7.384,3.71,9.592,9.592,0,0,1,7.388-3.71,11.91,11.91,0,0,1,4.838,1.2,1.385,1.385,0,0,1,.764,1.239,13,13,0,0,1-12.989,12.989m-10.183-12.1a10.222,10.222,0,0,0,20.367,0,9.322,9.322,0,0,0-2.8-.562c-2.715,0-6,2.207-6,4.946a1.383,1.383,0,1,1-2.766,0c0-2.739-3.283-4.946-6-4.946a9.342,9.342,0,0,0-2.8.562" transform="translate(19.622 54.792)" fill="#91b40d"/>
    <path id="Path_4343" data-name="Path 4343" d="M932.476,352.978a1.383,1.383,0,0,1-.944-2.393,10.117,10.117,0,0,0,3.214-6.572,9.332,9.332,0,0,0-2.8-.562c-2.715,0-6,2.207-6,4.946a1.383,1.383,0,1,1-2.766,0c0-2.739-3.283-4.946-6-4.946a9.353,9.353,0,0,0-2.8.562,10.136,10.136,0,0,0,3.217,6.572,1.383,1.383,0,1,1-1.888,2.021,13.018,13.018,0,0,1-4.131-9.483,1.385,1.385,0,0,1,.764-1.239,11.909,11.909,0,0,1,4.838-1.2,9.591,9.591,0,0,1,7.387,3.71,9.59,9.59,0,0,1,7.384-3.71,11.918,11.918,0,0,1,4.841,1.2,1.385,1.385,0,0,1,.764,1.239,13.03,13.03,0,0,1-4.131,9.483,1.376,1.376,0,0,1-.944.373" transform="translate(19.622 48.453)" fill="#91b40d"/>
    <path id="Path_4344" data-name="Path 4344" d="M925.562,346.264a1.382,1.382,0,0,1-1.38-1.311,9.108,9.108,0,0,0-3.864-7.387,9.108,9.108,0,0,0-3.863,7.387,1.383,1.383,0,0,1-2.763-.144c.352-6.621,5.06-10.09,6.626-10.09s6.275,3.47,6.627,10.09a1.382,1.382,0,0,1-1.308,1.452l-.075,0" transform="translate(23.866 36.481)" fill="#91b40d"/>
    <path id="Path_4345" data-name="Path 4345" d="M916.817,341.007a1.383,1.383,0,0,1-1.383-1.383v-5.277a1.383,1.383,0,1,1,2.766,0v5.277a1.383,1.383,0,0,1-1.383,1.383" transform="translate(27.367 32.961)" fill="#91b40d"/>
    <path id="Path_4346" data-name="Path 4346" d="M916.817,358.206a1.383,1.383,0,0,1-1.383-1.383v-7.387a1.383,1.383,0,1,1,2.766,0v7.387a1.383,1.383,0,0,1-1.383,1.383" transform="translate(27.367 63.24)" fill="#91b40d"/>
    <path id="Path_4347" data-name="Path 4347" d="M920.677,344.869a1.383,1.383,0,0,1-1.383-1.383v-6.332a1.383,1.383,0,1,1,2.766,0v6.332a1.383,1.383,0,0,1-1.383,1.383" transform="translate(35.113 38.594)" fill="#91b40d"/>
    <path id="Path_4348" data-name="Path 4348" d="M912.957,344.869a1.383,1.383,0,0,1-1.383-1.383v-6.332a1.383,1.383,0,0,1,2.766,0v6.332a1.383,1.383,0,0,1-1.383,1.383" transform="translate(19.622 38.594)" fill="#91b40d"/>
    <path id="Path_4349" data-name="Path 4349" d="M912.27,355.4h-6.332a1.383,1.383,0,1,1,0-2.766H911.7l5.923-5.926a1.384,1.384,0,0,1,1.957,1.957l-6.332,6.329a1.384,1.384,0,0,1-.977.406" transform="translate(5.537 59.72)" fill="#91b40d"/>
    <path id="Path_4350" data-name="Path 4350" d="M936.145,355.4h-6.329a1.383,1.383,0,0,1-.98-.406l-6.329-6.329a1.383,1.383,0,0,1,1.954-1.957l5.926,5.926h5.758a1.383,1.383,0,1,1,0,2.766" transform="translate(40.746 59.72)" fill="#91b40d"/>
    <path id="Path_4351" data-name="Path 4351" d="M950.243,364.882a1.375,1.375,0,0,1-.977-.406l-11.2-11.2H922.329l-11.2,11.2a1.382,1.382,0,0,1-1.954-1.954l11.606-11.606a1.371,1.371,0,0,1,.977-.406h16.882a1.371,1.371,0,0,1,.977.406l11.606,11.606a1.383,1.383,0,0,1-.977,2.36" transform="translate(13.987 68.17)" fill="#91b40d"/>
    <path id="Path_4352" data-name="Path 4352" d="M912.745,340.8a2.111,2.111,0,1,1-2.111-2.111,2.109,2.109,0,0,1,2.111,2.111" transform="translate(13.501 44.447)" fill="#91b40d"/>
    <path id="Path_4353" data-name="Path 4353" d="M921.86,340.8a2.111,2.111,0,1,0,2.111-2.111,2.11,2.11,0,0,0-2.111,2.111" transform="translate(40.262 44.447)" fill="#91b40d"/>
    <path id="Path_4354" data-name="Path 4354" d="M912.745,348.168a2.111,2.111,0,1,1-2.111-2.111,2.11,2.11,0,0,1,2.111,2.111" transform="translate(13.501 59.234)" fill="#91b40d"/>
    <path id="Path_4355" data-name="Path 4355" d="M921.86,348.168a2.111,2.111,0,1,0,2.111-2.111,2.11,2.11,0,0,0-2.111,2.111" transform="translate(40.262 59.234)" fill="#91b40d"/>
    <path id="Path_4356" data-name="Path 4356" d="M912.745,356.239a2.111,2.111,0,1,1-2.111-2.111,2.11,2.11,0,0,1,2.111,2.111" transform="translate(13.501 75.43)" fill="#91b40d"/>
    <path id="Path_4357" data-name="Path 4357" d="M926.08,356.239a2.111,2.111,0,1,1-2.111-2.111,2.11,2.11,0,0,1,2.111,2.111" transform="translate(40.26 75.43)" fill="#91b40d"/>
    <path id="Path_4358" data-name="Path 4358" d="M908.044,359.633a1.383,1.383,0,0,1-1.383-1.383V346.644a1.37,1.37,0,0,1,.406-.977l6.329-6.332a1.384,1.384,0,1,1,1.957,1.957l-5.926,5.923V358.25a1.383,1.383,0,0,1-1.383,1.383" transform="translate(9.763 44.931)" fill="#91b40d"/>
    <path id="Path_4359" data-name="Path 4359" d="M929.816,359.633a1.383,1.383,0,0,1-1.383-1.383V347.215l-5.926-5.923a1.384,1.384,0,1,1,1.957-1.957l6.329,6.332a1.372,1.372,0,0,1,.406.977V358.25a1.383,1.383,0,0,1-1.383,1.383" transform="translate(40.746 44.931)" fill="#91b40d"/>
    <path id="Path_4360" data-name="Path 4360" d="M917.184,359.962a1.375,1.375,0,0,1-.977-.406l-7.387-7.384a1.384,1.384,0,0,1,1.957-1.957l7.384,7.387a1.383,1.383,0,0,1-.977,2.36" transform="translate(13.284 66.761)" fill="#91b40d"/>
    <path id="Path_4361" data-name="Path 4361" d="M921.379,359.962a1.383,1.383,0,0,1-.977-2.36l7.384-7.387a1.384,1.384,0,0,1,1.957,1.957l-7.387,7.384a1.375,1.375,0,0,1-.977.406" transform="translate(36.521 66.761)" fill="#91b40d"/>
    <path id="Path_4362" data-name="Path 4362" d="M990.808,351.3H964.44a5.074,5.074,0,0,1-4.519-7.384h-2.865a5.072,5.072,0,0,1-4.4-7.6,5.076,5.076,0,0,1,0-9.729,5.072,5.072,0,0,1,4.4-7.6h8.124a1.383,1.383,0,0,1,0,2.766h-8.124a2.311,2.311,0,0,0,0,4.621h17.971a1.383,1.383,0,1,1,0,2.766H954.1a2.309,2.309,0,0,0,0,4.618h20.926a1.383,1.383,0,1,1,0,2.766H957.056a2.309,2.309,0,0,0,0,4.618h20.927a1.385,1.385,0,0,1,0,2.769H964.44a2.309,2.309,0,1,0,0,4.618h26.368a19.359,19.359,0,0,0,8.629-2.039l7.983-3.99a2.876,2.876,0,0,1,1.281-.3h2.9a1.385,1.385,0,1,1,0,2.769h-2.9l-8.025,4a22.179,22.179,0,0,1-9.868,2.33" transform="translate(94.773 4.928)" fill="#91b40d"/>
    <path id="Path_4363" data-name="Path 4363" d="M980.264,336.313a1.367,1.367,0,0,1-.46-.081,12.757,12.757,0,0,1-8.166-9.54H962.4a6.667,6.667,0,0,1-6.66-6.66,3.5,3.5,0,0,1,3.494-3.494h19.652a8.763,8.763,0,0,1,4.648,1.332l9.684,6.055h9.134a1.383,1.383,0,0,1,0,2.766h-9.179a2.606,2.606,0,0,1-1.386-.4l-9.721-6.073a5.983,5.983,0,0,0-3.181-.914H959.233a.73.73,0,0,0-.728.728,3.9,3.9,0,0,0,3.894,3.894h10.478a1.386,1.386,0,0,1,1.386,1.383,9.827,9.827,0,0,0,6.461,8.316,1.383,1.383,0,0,1-.46,2.688" transform="translate(108.245 0)" fill="#91b40d"/>
    <path id="Path_4364" data-name="Path 4364" d="M983.117,350.92a16.175,16.175,0,0,1-16.095-14.772H950.408a1.383,1.383,0,0,1,0-2.766h17.938a1.383,1.383,0,0,1,1.383,1.383,13.389,13.389,0,1,0,26.777,0,1.383,1.383,0,0,1,1.383-1.383h17.935a1.383,1.383,0,1,1,0,2.766H999.212a16.175,16.175,0,0,1-16.095,14.772" transform="translate(94.773 33.8)" fill="#91b40d"/>
    <path id="Path_4365" data-name="Path 4365" d="M961.777,333.5a2.111,2.111,0,1,1-2.111-2.111,2.11,2.11,0,0,1,2.111,2.111" transform="translate(111.892 29.793)" fill="#91b40d"/>
    <path id="Path_4366" data-name="Path 4366" d="M963.883,336.655a2.111,2.111,0,1,1-2.111-2.111,2.109,2.109,0,0,1,2.111,2.111" transform="translate(116.118 36.132)" fill="#91b40d"/>
    <path id="Path_4367" data-name="Path 4367" d="M965.988,334.2a2.111,2.111,0,1,1-2.111-2.111,2.11,2.11,0,0,1,2.111,2.111" transform="translate(120.342 31.201)" fill="#91b40d"/>
    <path id="Path_4368" data-name="Path 4368" d="M1023.7,372.9l-3.881-.186-3.425.183-.063,0a7.308,7.308,0,0,1-5.174-2.12l-.884-.872a18.7,18.7,0,0,1-5.616-13.389v-1.681a8.839,8.839,0,0,1,2.405-6.467c2.58-2.76,6.939-4.161,12.953-4.161,6.1,0,10.5,1.422,13.061,4.224a8.685,8.685,0,0,1,2.3,6.452v1.633a18.7,18.7,0,0,1-5.616,13.389l-.884.872a7.307,7.307,0,0,1-5.174,2.12m-3.885-2.5h.057l3.882.189a4.987,4.987,0,0,0,3.494-1.452l.884-.872a16.4,16.4,0,0,0,4.925-11.741v-1.681c0-.033,0-.093.006-.126a6.384,6.384,0,0,0-1.7-4.711c-2.078-2.273-6-3.473-11.35-3.473s-9.134,1.152-11.263,3.428a6.5,6.5,0,0,0-1.783,4.772l.006.105v1.687a16.4,16.4,0,0,0,4.925,11.741l.884.872a5.022,5.022,0,0,0,3.518,1.452l3.452-.186.063,0" transform="translate(206.375 55.526)" fill="#91b40d"/>
    <path id="Path_4369" data-name="Path 4369" d="M1012.1,348.949a5.225,5.225,0,0,1-2.832-.749,1.159,1.159,0,1,1,1.151-2.011,2.935,2.935,0,0,0,1.681.445,3.212,3.212,0,0,0,1.681-.445,1.159,1.159,0,0,1,1.152,2.011,5.591,5.591,0,0,1-2.832.749" transform="translate(214.483 59.19)" fill="#91b40d"/>
    <path id="Path_4370" data-name="Path 4370" d="M1015.6,372.9l-3.882-.186-3.425.183-.063,0a7.308,7.308,0,0,1-5.174-2.12l-.884-.872a18.7,18.7,0,0,1-5.613-13.389v-1.648a8.859,8.859,0,0,1,2.4-6.5c2.583-2.763,6.942-4.164,12.959-4.164,4.507,0,8.112.788,10.713,2.339a1.158,1.158,0,0,1-1.185,1.99c-2.237-1.335-5.445-2.011-9.528-2.011-5.349,0-9.14,1.155-11.266,3.428a6.494,6.494,0,0,0-1.783,4.772l.006.1v1.69a16.4,16.4,0,0,0,4.925,11.741l.884.872a5.081,5.081,0,0,0,3.521,1.452l3.449-.186c.039,0,.081,0,.12,0l3.884.189a4.985,4.985,0,0,0,3.491-1.452l.884-.872a16.63,16.63,0,0,0,3.025-4.074,1.159,1.159,0,0,1,2.051,1.079,18.946,18.946,0,0,1-3.449,4.642l-.884.872a7.308,7.308,0,0,1-5.175,2.12" transform="translate(190.129 55.526)" fill="#91b40d"/>
    <path id="Path_4371" data-name="Path 4371" d="M1004,348.949a5.225,5.225,0,0,1-2.832-.749,1.159,1.159,0,0,1,1.151-2.011,2.941,2.941,0,0,0,1.681.445,3.214,3.214,0,0,0,1.681-.445,1.159,1.159,0,0,1,1.151,2.011,5.592,5.592,0,0,1-2.832.749" transform="translate(198.235 59.19)" fill="#91b40d"/>
    <path id="Path_4372" data-name="Path 4372" d="M1002.5,376.476a1.018,1.018,0,0,1-.135-.009,1.156,1.156,0,0,1-1.016-1.281c.114-1.019,3.028-25.13,17.974-42.713a1.158,1.158,0,0,1,1.765,1.5c-14.48,17.033-17.412,41.233-17.439,41.477a1.159,1.159,0,0,1-1.148,1.025" transform="translate(199.756 31.158)" fill="#91b40d"/>
    <path id="Path_4373" data-name="Path 4373" d="M1016.172,374.778a1.155,1.155,0,0,1-.953-.5c-.349-.505-8.557-12.694-8.557-40.319a1.158,1.158,0,1,1,2.315,0c0,26.91,8.064,38.885,8.148,39a1.157,1.157,0,0,1-.295,1.609,1.136,1.136,0,0,1-.659.2" transform="translate(210.43 32.636)" fill="#91b40d"/>
    <path id="Path_4374" data-name="Path 4374" d="M1034.375,357.026c-23.584,0-27.472-19.008-27.508-19.2a1.156,1.156,0,0,1,1.137-1.374c24.546,0,27.492,19.062,27.52,19.255a1.161,1.161,0,0,1-1.148,1.32m-24.859-18.232c1.281,4.035,6.377,15.289,23.419,15.89-1.071-3.975-5.671-15.28-23.419-15.89" transform="translate(210.799 39.958)" fill="#91b40d"/>
    <path id="Path_4375" data-name="Path 4375" d="M941.964,336.411a3.512,3.512,0,1,1-4.588-1.9,3.511,3.511,0,0,1,4.588,1.9" transform="translate(67.044 35.527)" fill="#91b40d"/>
    <path id="Path_4376" data-name="Path 4376" d="M1020.724,374.41a3.512,3.512,0,1,1,1.9-4.588,3.511,3.511,0,0,1-1.9,4.588" transform="translate(228.903 102.571)" fill="#91b40d"/>
    <path id="Path_4377" data-name="Path 4377" d="M989.213,339.1a3.512,3.512,0,1,1-1.9-4.588,3.511,3.511,0,0,1,1.9,4.588" transform="translate(161.859 35.527)" fill="#91b40d"/>
    <path id="Path_4378" data-name="Path 4378" d="M903.965,374.41a3.512,3.512,0,1,1,4.588-1.9,3.511,3.511,0,0,1-4.588,1.9" transform="translate(0 102.571)" fill="#91b40d"/>
  </g>
</svg>
