<svg xmlns="http://www.w3.org/2000/svg" width="535" height="35" viewBox="0 0 535 35">
  <g id="Group_451" data-name="Group 451" transform="translate(-716.129 -1359.514)">
    <g id="Group_6" data-name="Group 6" transform="translate(966.283 1359.514)">
      <path id="Path_35" data-name="Path 35" d="M-2786.628,548.394a3.9,3.9,0,0,1-.417-.764,17.043,17.043,0,0,1-.474-4.363,27.835,27.835,0,0,1,1.914-10.931,14.27,14.27,0,0,1,3.4-5.39,12.526,12.526,0,0,1,4.309-2.574,26.852,26.852,0,0,1,6.135-1.307,65.735,65.735,0,0,0,7.279-1.032,16.806,16.806,0,0,0,3.844-1.359,3.343,3.343,0,0,1,.4-.192.493.493,0,0,1,.669.467,1.146,1.146,0,0,1-.038.306c-.588,2.237-1.138,4.484-1.78,6.706a17.816,17.816,0,0,1-5.117,8.484,14.124,14.124,0,0,1-7.537,3.55c-2.152.326-4.31.616-6.456.976a19.3,19.3,0,0,0-2.209.63c-.143.042-.28.1-.422.145-.557.165-.9-.065-.949-.644a3.991,3.991,0,0,1,.435-1.961,11.877,11.877,0,0,1,5.556-5.834c.846-.432,1.713-.823,2.571-1.232a.7.7,0,0,0,.212-.108,1.022,1.022,0,0,0,.127-.241c-.088-.029-.187-.1-.263-.079-.344.086-.683.192-1.021.3a18.6,18.6,0,0,0-4.643,2.031,10.438,10.438,0,0,0-4.183,5.008,14.853,14.853,0,0,0-1.143,6.41,18.826,18.826,0,0,0,.347,2.271.656.656,0,0,1-.209.729Z" transform="translate(2794.255 -513.394)" fill="#91b40d"/>
      <path id="Path_36" data-name="Path 36" d="M-2914.34,368.821c-.617.091-1.22.149-1.809.272-1.265.266-2.521.569-3.783.846a.64.64,0,0,1-.444-.026,10.525,10.525,0,0,0-4.358-1.572c-.356-.062-.709-.142-1.071-.181l4.515,2.208c-.826.461-1.583.842-2.3,1.29a11.059,11.059,0,0,0-3.244,3.131.415.415,0,0,1-.538.193,8.858,8.858,0,0,1-3.987-2.465,16.739,16.739,0,0,1-4.229-7.863c-.346-1.388-.728-2.768-1.069-4.157a.715.715,0,0,1,.109-.581c.088-.09.4-.058.551.024a17.953,17.953,0,0,0,7.14,1.809,23.787,23.787,0,0,1,6.74,1.224,16.519,16.519,0,0,1,7.348,5.186c.127.162.236.338.351.509A1.461,1.461,0,0,1-2914.34,368.821Z" transform="translate(2936.672 -359.862)" fill="#91b40d"/>
    </g>
    <path id="Path_37" data-name="Path 37" d="M-2855.229,1923.7c-4.762-3.746-9.812-7.546-19.621-7.546-9.295,0-14.285,3.415-18.875,6.939-4.589-3.524-9.582-6.939-18.874-6.939-9.812,0-14.861,3.8-19.621,7.546-4.819-3.746-9.812-7.546-19.621-7.546-9.466,0-14.515,3.524-19.1,7.159-5.165-4.021-10.385-7.159-19.851-7.159-9.295,0-14.285,3.415-18.874,6.939-4.589-3.524-9.582-6.939-18.875-6.939-9.81,0-14.8,3.8-19.621,7.546-4.82-3.746-9.812-7.546-19.621-7.546-9.293,0-14.285,3.415-18.874,6.939l-1.719,1.377,1.719,1.322c4.762,3.745,9.81,7.546,19.621,7.546,9.293,0,14.285-3.415,18.875-7,4.589,3.58,9.582,7,18.874,7,9.81,0,14.859-3.8,19.621-7.546,4.819,3.745,9.81,7.546,19.621,7.546,9.464,0,14.513-3.58,19.1-7.216,5.161,4.021,10.381,7.216,19.849,7.216,9.292,0,14.285-3.415,18.874-7,4.589,3.58,9.582,7,18.875,7,9.812,0,14.859-3.8,19.621-7.546,4.817,3.745,9.81,7.546,19.619,7.546,9.295,0,14.285-3.415,18.876-7l1.721-1.322Zm-211.81,7.49c-8.835,0-13.367-3.194-17.9-6.72,4.3-3.3,8.835-6.224,17.154-6.224,8.835,0,13.367,3.249,17.9,6.774C-3054.188,1928.322-3058.72,1931.187-3067.039,1931.187Zm37.749,0c-8.318,0-12.851-2.864-17.153-6.169,4.532-3.525,9.065-6.774,17.9-6.774,8.318,0,12.851,2.919,17.154,6.224C-3015.922,1927.992-3020.455,1931.187-3029.29,1931.187Zm39.242,0c-8.778,0-13.368-3.194-17.9-6.72,4.3-3.3,8.835-6.224,17.153-6.224,8.662,0,13.425,2.754,18.3,6.5C-2976.91,1928.157-2981.442,1931.187-2990.048,1931.187Zm38.953,0c-8.662,0-13.425-2.754-18.3-6.444,4.417-3.415,8.949-6.444,17.554-6.444,8.778,0,13.368,3.194,17.9,6.72C-2938.244,1928.322-2942.776,1931.187-2951.094,1931.187Zm37.749,0c-8.318,0-12.851-2.864-17.154-6.169,4.532-3.525,9.065-6.72,17.9-6.72,8.318,0,12.851,2.864,17.153,6.169C-2899.978,1927.992-2904.51,1931.187-2913.345,1931.187Zm39.24,0c-8.835,0-13.367-3.194-17.9-6.72,4.3-3.3,8.833-6.169,17.154-6.169,8.833,0,13.365,3.194,17.9,6.72C-2861.255,1928.322-2865.787,1931.187-2874.105,1931.187Z" transform="translate(3804.508 -547.73)" fill="#d8d8d8"/>
    <path id="Path_38" data-name="Path 38" d="M-2855.229,1923.7c-4.762-3.746-9.812-7.546-19.621-7.546-9.295,0-14.285,3.415-18.875,6.939-4.589-3.524-9.582-6.939-18.874-6.939-9.812,0-14.861,3.8-19.621,7.546-4.819-3.746-9.812-7.546-19.621-7.546-9.466,0-14.515,3.524-19.1,7.159-5.165-4.021-10.385-7.159-19.851-7.159-9.295,0-14.285,3.415-18.874,6.939-4.589-3.524-9.582-6.939-18.875-6.939-9.81,0-14.8,3.8-19.621,7.546-4.82-3.746-9.812-7.546-19.621-7.546-9.293,0-14.285,3.415-18.874,6.939l-1.719,1.377,1.719,1.322c4.762,3.745,9.81,7.546,19.621,7.546,9.293,0,14.285-3.415,18.875-7,4.589,3.58,9.582,7,18.874,7,9.81,0,14.859-3.8,19.621-7.546,4.819,3.745,9.81,7.546,19.621,7.546,9.464,0,14.513-3.58,19.1-7.216,5.161,4.021,10.381,7.216,19.849,7.216,9.292,0,14.285-3.415,18.874-7,4.589,3.58,9.582,7,18.875,7,9.812,0,14.859-3.8,19.621-7.546,4.817,3.745,9.81,7.546,19.619,7.546,9.295,0,14.285-3.415,18.876-7l1.721-1.322Zm-211.81,7.49c-8.835,0-13.367-3.194-17.9-6.72,4.3-3.3,8.835-6.224,17.154-6.224,8.835,0,13.367,3.249,17.9,6.774C-3054.188,1928.322-3058.72,1931.187-3067.039,1931.187Zm37.749,0c-8.318,0-12.851-2.864-17.153-6.169,4.532-3.525,9.065-6.774,17.9-6.774,8.318,0,12.851,2.919,17.154,6.224C-3015.922,1927.992-3020.455,1931.187-3029.29,1931.187Zm39.242,0c-8.778,0-13.368-3.194-17.9-6.72,4.3-3.3,8.835-6.224,17.153-6.224,8.662,0,13.425,2.754,18.3,6.5C-2976.91,1928.157-2981.442,1931.187-2990.048,1931.187Zm38.953,0c-8.662,0-13.425-2.754-18.3-6.444,4.417-3.415,8.949-6.444,17.554-6.444,8.778,0,13.368,3.194,17.9,6.72C-2938.244,1928.322-2942.776,1931.187-2951.094,1931.187Zm37.749,0c-8.318,0-12.851-2.864-17.154-6.169,4.532-3.525,9.065-6.72,17.9-6.72,8.318,0,12.851,2.864,17.153,6.169C-2899.978,1927.992-2904.51,1931.187-2913.345,1931.187Zm39.24,0c-8.835,0-13.367-3.194-17.9-6.72,4.3-3.3,8.833-6.169,17.154-6.169,8.833,0,13.365,3.194,17.9,6.72C-2861.255,1928.322-2865.787,1931.187-2874.105,1931.187Z" transform="translate(4104.637 -547.73)" fill="#d8d8d8"/>
  </g>
</svg>
