<svg id="Group_7" data-name="Group 7" xmlns="http://www.w3.org/2000/svg" width="35" height="35.5" viewBox="0 0 35 35.5">
  <path id="Path_35" data-name="Path 35" d="M-2786.619,548.685a3.981,3.981,0,0,1-.421-.772,17.242,17.242,0,0,1-.479-4.408,28.131,28.131,0,0,1,1.934-11.044,14.417,14.417,0,0,1,3.437-5.446,12.651,12.651,0,0,1,4.354-2.6,27.125,27.125,0,0,1,6.2-1.321,66.41,66.41,0,0,0,7.355-1.043,16.98,16.98,0,0,0,3.884-1.373,3.4,3.4,0,0,1,.407-.194.5.5,0,0,1,.677.472,1.159,1.159,0,0,1-.038.309c-.594,2.26-1.151,4.531-1.8,6.775a18,18,0,0,1-5.171,8.572,14.27,14.27,0,0,1-7.615,3.587c-2.174.33-4.354.622-6.522.986a19.514,19.514,0,0,0-2.232.636c-.144.042-.282.1-.427.147-.563.166-.914-.065-.959-.651a4.033,4.033,0,0,1,.44-1.981,12,12,0,0,1,5.614-5.894c.854-.437,1.731-.831,2.6-1.245a.707.707,0,0,0,.215-.109,1.048,1.048,0,0,0,.129-.244c-.089-.029-.189-.1-.266-.08-.348.086-.69.194-1.032.3a18.784,18.784,0,0,0-4.691,2.052,10.547,10.547,0,0,0-4.227,5.06,15.013,15.013,0,0,0-1.155,6.476,19.072,19.072,0,0,0,.351,2.294.664.664,0,0,1-.211.737Z" transform="translate(2794.273 -513.184)" fill="#91b40d"/>
  <path id="Path_36" data-name="Path 36" d="M-2914.108,368.914c-.623.092-1.232.15-1.827.275-1.278.269-2.547.575-3.823.855a.646.646,0,0,1-.449-.026,10.635,10.635,0,0,0-4.4-1.589c-.36-.063-.717-.144-1.082-.183l4.562,2.231c-.835.466-1.6.85-2.321,1.3a11.18,11.18,0,0,0-3.278,3.164.419.419,0,0,1-.543.2,8.953,8.953,0,0,1-4.029-2.491,16.91,16.91,0,0,1-4.272-7.945c-.35-1.4-.735-2.8-1.08-4.2a.724.724,0,0,1,.111-.587c.089-.091.4-.058.556.024a18.14,18.14,0,0,0,7.214,1.828,24.039,24.039,0,0,1,6.81,1.237,16.692,16.692,0,0,1,7.424,5.24c.128.163.238.342.354.515A1.565,1.565,0,0,1-2914.108,368.914Z" transform="translate(2936.672 -359.862)" fill="#91b40d"/>
</svg>
