<svg xmlns="http://www.w3.org/2000/svg" width="270" height="105" viewBox="0 0 270 105">
  <g id="Group_418" data-name="Group 418" transform="translate(-645.523 -403.577)">
    <path id="Path_1" data-name="Path 1" d="M890.1,454.864l-33.9-33.9a3.19,3.19,0,0,1,0-4.512l11.944-11.944a3.19,3.19,0,0,1,4.512,0l33.9,33.9a3.19,3.19,0,0,1,0,4.512l-11.944,11.944a3.19,3.19,0,0,1-4.512,0" transform="translate(-119.985 0)" fill="#fff"/>
    <path id="Path_2" data-name="Path 2" d="M825.826,479.821l-14.952-14.952a3.191,3.191,0,0,1,0-4.512l11.944-11.944a3.191,3.191,0,0,1,4.512,0l14.951,14.952a3.19,3.19,0,0,1,0,4.512l-11.944,11.944a3.189,3.189,0,0,1-4.512,0" transform="translate(-94.042 -25.325)" fill="#fff"/>
    <path id="Path_3" data-name="Path 3" d="M1016.242,453.838a3.191,3.191,0,0,1-3.191,3.19H1002.89A51.329,51.329,0,0,1,966.356,441.9l-20.928-20.928a3.191,3.191,0,0,1,0-4.512l11.944-11.944a3.19,3.19,0,0,1,4.512,0l20.928,20.927a28.206,28.206,0,0,0,20.078,8.317h10.162a3.191,3.191,0,0,1,3.191,3.191Z" transform="translate(-171.062 0)" fill="#fff"/>
    <path id="Path_4" data-name="Path 4" d="M676.06,595.467v20.659h-5.366v-14.39L662,613.324l-8.691-11.587v14.39h-5.367V595.467l-2.422-3.942h5.984L662,605.44l10.5-13.915h5.984Z" transform="translate(0 -108.308)" fill="#fff"/>
    <path id="Path_5" data-name="Path 5" d="M747.665,611.187H763.1v4.939H742.821v-24.6H762.2v4.892H747.665V602.4c2.137-1.235,4.844-1.425,7.693-1.425h3.609v4.892h-3.609c-4.512,0-5.556.285-7.693,1.424Z" transform="translate(-55.646 -108.309)" fill="#fff"/>
    <path id="Path_6" data-name="Path 6" d="M811.672,616.126v-24.6h5.081v19.661h13.06v4.939Z" transform="translate(-95.022 -108.308)" fill="#fff"/>
    <path id="Path_7" data-name="Path 7" d="M871.869,590.2h5.271l13.3,25.17h-5.366l-1.947-3.7H880.18c-6.079,0-12.4,2.375-13.2,3.42l-.142.285h-5.129l11.778-22.083Zm8.928,17-4.8-9.118-5.842,11.255a21.735,21.735,0,0,1,9.973-2.137Z" transform="translate(-123.646 -107.55)" fill="#fff"/>
    <path id="Path_8" data-name="Path 8" d="M969.187,591.525h15.244c7.409,0,12.443,4.274,12.443,12.11,0,7.646-4.94,12.49-12.443,12.49H974.411V596.417h-3.039Zm10.353,4.892v14.769h4.891c4.749,0,7.456-2.707,7.456-7.456,0-4.8-2.707-7.314-7.456-7.314Z" transform="translate(-185.119 -108.308)" fill="#fff"/>
    <path id="Path_9" data-name="Path 9" d="M1063.7,615.811c-7.456,0-14.485-4.844-14.485-13.155,0-8.359,7.172-13.013,14.532-13.013,7.409,0,14.532,4.322,14.532,12.869,0,8.359-7.123,13.3-14.58,13.3m.047-21.134c-4.749,0-9.4,2.517-9.4,8.074s4.75,8.073,9.451,8.073c4.654,0,9.355-2.944,9.355-8.263,0-5.509-4.749-7.884-9.4-7.884" transform="translate(-230.894 -107.234)" fill="#fff"/>
    <path id="Path_10" data-name="Path 10" d="M1157.465,608.67a4.343,4.343,0,0,0,4.132,2.185h1.71v5.271h-2.137c-2.564,0-4.892-.19-7.171-3.894l-3.8-6.174h-.333c-3.846,0-4.891.38-6.886,1.425v8.643h-4.986v-24.6h15.862c4.511,0,7.741,3.134,7.741,7.409,0,3.752-2.09,6.079-5.652,7.171Zm-3.609-7.5c1.472,0,2.755-.807,2.755-2.374,0-2.185-1.9-2.374-3.609-2.374h-10.021v6.174a14.419,14.419,0,0,1,6.886-1.425Z" transform="translate(-281.741 -108.309)" fill="#fff"/>
    <path id="Path_11" data-name="Path 11" d="M1219.332,590.2h5.271l13.3,25.17h-5.367l-1.947-3.7h-2.945c-6.079,0-12.394,2.375-13.2,3.42l-.143.285h-5.129l11.778-22.083Zm8.928,17-4.8-9.118-5.842,11.255a21.733,21.733,0,0,1,9.973-2.137Z" transform="translate(-322.378 -107.55)" fill="#fff"/>
  </g>
</svg>
