<svg xmlns="http://www.w3.org/2000/svg" width="360" height="148" viewBox="0 0 360 148">
  <g id="Group_417" data-name="Group 417" transform="translate(-809.94 -403.577)" opacity="0.1">
    <path id="Path_4337" data-name="Path 4337" d="M953.407,545.525,857.9,451.71a8.72,8.72,0,0,1,0-12.488l33.655-33.059a9.1,9.1,0,0,1,12.713,0l95.508,93.814a8.72,8.72,0,0,1,0,12.488L966.12,545.525a9.1,9.1,0,0,1-12.713,0" transform="translate(8.254 0)" fill="#91b40d"/>
    <path id="Path_4338" data-name="Path 4338" d="M854.7,538.611,812.573,496.48a8.989,8.989,0,0,1,0-12.713l33.656-33.656a8.993,8.993,0,0,1,12.715,0l42.127,42.131a8.99,8.99,0,0,1,0,12.713l-33.655,33.656a8.987,8.987,0,0,1-12.713,0" transform="translate(0 6.564)" fill="#ffbf00"/>
    <path id="Path_4339" data-name="Path 4339" d="M1146.659,542.743a8.913,8.913,0,0,1-8.99,8.834h-28.634a145.927,145.927,0,0,1-102.939-41.9L947.127,451.73a8.726,8.726,0,0,1,0-12.493l33.655-33.072a9.1,9.1,0,0,1,12.713,0l58.969,57.946a80.19,80.19,0,0,0,56.571,23.028h28.634a8.914,8.914,0,0,1,8.99,8.835Z" transform="translate(23.281 0)" fill="#1a5221"/>
  </g>
</svg>
