<svg xmlns="http://www.w3.org/2000/svg" width="115" height="45" viewBox="0 0 115 45">
  <g id="Group_1" data-name="Group 1" transform="translate(-645.523 -403.577)">
    <path id="Path_1" data-name="Path 1" d="M869.906,425.135l-14.248-14.248a1.341,1.341,0,0,1,0-1.9l5.021-5.021a1.341,1.341,0,0,1,1.9,0l14.248,14.248a1.341,1.341,0,0,1,0,1.9l-5.02,5.021a1.341,1.341,0,0,1-1.9,0" transform="translate(-171.392)" fill="#91b40d"/>
    <path id="Path_2" data-name="Path 2" d="M816.618,461.074l-6.285-6.285a1.341,1.341,0,0,1,0-1.9l5.021-5.021a1.342,1.342,0,0,1,1.9,0l6.284,6.285a1.341,1.341,0,0,1,0,1.9l-5.021,5.021a1.341,1.341,0,0,1-1.9,0" transform="translate(-134.387 -35.869)" fill="#ffbf00"/>
    <path id="Path_3" data-name="Path 3" d="M974.653,424.7a1.341,1.341,0,0,1-1.341,1.341H969.04a21.575,21.575,0,0,1-15.356-6.361l-8.8-8.8a1.341,1.341,0,0,1,0-1.9l5.021-5.021a1.341,1.341,0,0,1,1.9,0l8.8,8.8a11.856,11.856,0,0,0,8.439,3.5h4.271a1.341,1.341,0,0,1,1.341,1.341Z" transform="translate(-244.232 0)" fill="#1a5221"/>
    <path id="Path_4" data-name="Path 4" d="M658.359,593.182v8.684H656.1v-6.048l-3.653,4.871-3.653-4.871v6.048h-2.256v-8.684l-1.018-1.657h2.515l4.412,5.849,4.412-5.849h2.515Z" transform="translate(0 -153.608)" fill="#e6e6e6"/>
    <path id="Path_5" data-name="Path 5" d="M744.857,599.79h6.488v2.076h-8.524v-10.34h8.145v2.056h-6.109V596.1a6.475,6.475,0,0,1,3.234-.6h1.517v2.056h-1.517a5.427,5.427,0,0,0-3.234.6Z" transform="translate(-79.538 -153.609)" fill="#e6e6e6"/>
    <path id="Path_6" data-name="Path 6" d="M811.672,601.866v-10.34h2.136v8.264h5.49v2.076Z" transform="translate(-135.825 -153.608)" fill="#e6e6e6"/>
    <path id="Path_7" data-name="Path 7" d="M865.978,590.2h2.216l5.589,10.58h-2.256l-.818-1.557h-1.238c-2.555,0-5.21,1-5.55,1.437l-.06.12h-2.156l4.951-9.282Zm3.753,7.146-2.016-3.833-2.455,4.731a9.136,9.136,0,0,1,4.192-.9Z" transform="translate(-176.707 -152.519)" fill="#e6e6e6"/>
    <path id="Path_8" data-name="Path 8" d="M969.187,591.525h6.408c3.114,0,5.23,1.8,5.23,5.09a4.91,4.91,0,0,1-5.23,5.25h-4.212v-8.284h-1.277Zm4.352,2.056v6.208h2.056a2.849,2.849,0,0,0,3.134-3.134,2.8,2.8,0,0,0-3.134-3.074Z" transform="translate(-264.565 -153.608)" fill="#e6e6e6"/>
    <path id="Path_9" data-name="Path 9" d="M1055.307,600.643c-3.134,0-6.089-2.036-6.089-5.529,0-3.513,3.015-5.47,6.108-5.47,3.114,0,6.109,1.817,6.109,5.409,0,3.514-2.994,5.59-6.128,5.59m.02-8.883c-2,0-3.953,1.058-3.953,3.394s2,3.393,3.973,3.393c1.956,0,3.932-1.238,3.932-3.473,0-2.316-2-3.314-3.953-3.314" transform="translate(-329.978 -152.066)" fill="#e6e6e6"/>
    <path id="Path_10" data-name="Path 10" d="M1146.178,598.732a1.825,1.825,0,0,0,1.737.918h.719v2.216h-.9a2.975,2.975,0,0,1-3.014-1.637l-1.6-2.6h-.14a4.927,4.927,0,0,0-2.894.6v3.633h-2.1v-10.34h6.667a3.08,3.08,0,0,1,3.254,3.114,2.979,2.979,0,0,1-2.376,3.014Zm-1.517-3.154a1.032,1.032,0,0,0,1.158-1c0-.918-.8-1-1.517-1h-4.212v2.6a6.061,6.061,0,0,1,2.894-.6Z" transform="translate(-402.384 -153.609)" fill="#e6e6e6"/>
    <path id="Path_11" data-name="Path 11" d="M1213.441,590.2h2.216l5.59,10.58h-2.256l-.818-1.557h-1.238c-2.555,0-5.21,1-5.549,1.437l-.06.12h-2.156l4.951-9.282Zm3.753,7.146-2.016-3.833-2.455,4.731a9.135,9.135,0,0,1,4.192-.9Z" transform="translate(-460.723 -152.519)" fill="#e6e6e6"/>
  </g>
</svg>
