<svg xmlns="http://www.w3.org/2000/svg" width="53" height="45" viewBox="0 0 53 45">
  <path id="Path_34" data-name="Path 34" d="M-1828.622,1325.066c-.087.4-.171.8-.262,1.193a20.694,20.694,0,0,1-4.035,7.826,65.575,65.575,0,0,1-10.315,10.328,124.936,124.936,0,0,1-11.083,8.213,1.237,1.237,0,0,1-1.525.063,108.053,108.053,0,0,1-18.225-14.793,34.926,34.926,0,0,1-6.108-8.283,13.3,13.3,0,0,1-.683-10.516,15.73,15.73,0,0,1,7.245-9.064,15.117,15.117,0,0,1,9.9-1.949,15.263,15.263,0,0,1,8.22,3.807c.1.091.211.176.343.285.551-.436,1.085-.891,1.653-1.3a14.934,14.934,0,0,1,10.842-2.832,15.4,15.4,0,0,1,11.56,7.393,15.718,15.718,0,0,1,2.392,7.169,3.68,3.68,0,0,0,.077.394Zm-37.053-15.078-.028-.144a34.622,34.622,0,0,0-3.995.746,13.451,13.451,0,0,0-8.848,8.2,11.857,11.857,0,0,0,1.021,11.38,40.454,40.454,0,0,0,5.23,6.575,105.894,105.894,0,0,0,16.833,13.727.509.509,0,0,0,.677-.007,106.033,106.033,0,0,0,16.8-13.69,35.22,35.22,0,0,0,5.383-6.844,11.669,11.669,0,0,0,1.9-5.764,13.813,13.813,0,0,0-4.045-10.073,13.419,13.419,0,0,0-19.132-.187c-1.109,1.083-1.38,1.082-2.5-.008A13.424,13.424,0,0,0-1865.674,1309.988Z" transform="translate(1881.622 -1307.924)" fill="#91b40d"/>
</svg>
