<svg xmlns="http://www.w3.org/2000/svg" width="43" height="45" viewBox="0 0 43 45">
  <g id="Group_4" data-name="Group 4" transform="translate(1007.149 -178.429)">
    <path id="Path_26" data-name="Path 26" d="M-958.4,204.633q5.149,0,10.3,0a2.384,2.384,0,0,1,2.753,1.966,17.055,17.055,0,0,0,7.061,9.146,2.594,2.594,0,0,1,1.348,3.058c-.316,1.338-.532,2.7-.845,4.04a1.455,1.455,0,0,1-1.712,1.283,1.471,1.471,0,0,1-1.074-1.933q.3-1.555.677-3.095a1.028,1.028,0,0,0-.472-1.28,19.747,19.747,0,0,1-7.442-9.617.915.915,0,0,0-1.041-.691q-9.583.092-19.167.134a.85.85,0,0,0-.953.671,19.743,19.743,0,0,1-7.319,9.712,1.031,1.031,0,0,0-.466,1.283c.268,1.021.486,2.055.7,3.088a1.471,1.471,0,0,1-.942,1.921,1.429,1.429,0,0,1-1.782-1.161c-.393-1.583-.749-3.177-1.035-4.783a1.976,1.976,0,0,1,.963-2.058,17.824,17.824,0,0,0,7.567-10.031,2.126,2.126,0,0,1,2.293-1.511c3.528-.01,7.057,0,10.586,0Z" transform="translate(-27.307 -26.204)" fill="#91b40d"/>
    <path id="Path_27" data-name="Path 27" d="M-944.7,345.231a8.507,8.507,0,0,1-1.232-.445,38.811,38.811,0,0,1-17.137-19.433,1.441,1.441,0,0,1,.709-2.085c.781-.315,1.52.05,1.945,1.038a36.077,36.077,0,0,0,9.14,13.091c1.806,1.593,3.867,2.89,5.8,4.341a1.12,1.12,0,0,0,1.453-.02A36.23,36.23,0,0,0-929.7,324.958c.142-.322.265-.652.419-.968a1.411,1.411,0,0,1,1.932-.861,1.435,1.435,0,0,1,.679,2.02,42.8,42.8,0,0,1-4.847,8.8,37.354,37.354,0,0,1-11.744,10.644A14.673,14.673,0,0,1-944.7,345.231Z" transform="translate(-40.693 -121.801)" fill="#91b40d"/>
    <path id="Path_28" data-name="Path 28" d="M-903.329,278.039c2.457-3.708,4.84-7.3,7.224-10.9a4.346,4.346,0,0,1,.492-.679,1.157,1.157,0,0,1,1.6-.182,1.148,1.148,0,0,1,.441,1.544,4.85,4.85,0,0,1-.383.65q-3.9,5.887-7.8,11.77c-.844,1.272-1.508,1.343-2.627.284q-2.322-2.2-4.637-4.4c-.743-.71-.838-1.484-.275-2.045s1.249-.5,1.994.2C-906,275.51-904.7,276.742-903.329,278.039Z" transform="translate(-83.123 -74.459)" fill="#91b40d"/>
  </g>
</svg>
