<svg xmlns="http://www.w3.org/2000/svg" width="47" height="45" viewBox="0 0 47 45">
  <path id="Path_24" data-name="Path 24" d="M-506.12,86.968a13.27,13.27,0,0,1,4.945-3.924,10.253,10.253,0,0,1,7.215-.383,30.623,30.623,0,0,1,6.224,2.546,30.566,30.566,0,0,0,3.077,1.516,13.687,13.687,0,0,0,2.262.492c.523-6.534.432-12.859-2.426-18.751a30.748,30.748,0,0,1-3.188.234c-3.471-.1-5.565-2.079-6.527-5.153a16.691,16.691,0,0,1-.576-5.7.727.727,0,0,1,.73-.791,17.078,17.078,0,0,1,8.193,1.391c2.978,1.471,3.991,3.8,3.163,7.049-.139.547-.383,1.066-.546,1.608a.787.787,0,0,0,.022.542,26.515,26.515,0,0,1,2.779,10.321,2.552,2.552,0,0,0,.15.743c.155-.338.323-.672.455-1.018.035-.091-.029-.227-.064-.337a8.157,8.157,0,0,1,.1-6.062,6.25,6.25,0,0,1,4.218-3.408,14.933,14.933,0,0,1,5.135-.478c.5.028.8.276.811.76a15.635,15.635,0,0,1-1.407,7.612,5.118,5.118,0,0,1-6.681,2.676c-.2-.067-.4-.129-.64-.2a23.135,23.135,0,0,0-2.13,8.9h.507c1.729,0,3.459.015,5.188,0a3.614,3.614,0,0,1,3.207,1.538.559.559,0,0,0,.121.091q2.83-3.274,5.657-6.543a10.054,10.054,0,0,1,2.413-2.3,7.092,7.092,0,0,1,3.636-.956c.872,0,1.191.49.839,1.294-1.8,4.114-3.611,8.222-5.4,12.34a10.246,10.246,0,0,1-4.529,5.082,6.529,6.529,0,0,1-1.418.635,64.259,64.259,0,0,0-7.04,2.618,14.168,14.168,0,0,1-4.295,1.072,12.613,12.613,0,0,1-5.937-1.09c-2.79-1.21-5.574-2.439-8.391-3.585a25.534,25.534,0,0,0-7.037-1.62c-.654-.068-1.308-.138-1.964-.191a1.1,1.1,0,0,1-.848-.544Zm1.564,7.076,1.145.117a28.046,28.046,0,0,1,7.8,1.785c2.83,1.156,5.627,2.393,8.433,3.606a10.846,10.846,0,0,0,5.731.878,16.841,16.841,0,0,0,4.02-1.231c1.737-.674,3.447-1.451,5.232-1.958a8.915,8.915,0,0,0,6.1-5.188q2.409-5.5,4.814-10.993c.059-.134.111-.271.172-.422a4.72,4.72,0,0,0-3.033,1.606q-3.066,3.552-6.13,7.107a4.489,4.489,0,0,0-1.219,2.177,3.322,3.322,0,0,1-3.521,2.623c-3.214.006-6.429-.018-9.642.014a23.776,23.776,0,0,0-2.778.268,13.341,13.341,0,0,0-1.365.32l-.509-1.427a9.648,9.648,0,0,1,1.334-.356,37.639,37.639,0,0,1,3.782-.352c3.076-.05,6.153-.022,9.229-.013a1.969,1.969,0,0,0,1.795-.911,1.842,1.842,0,0,0,.088-1.928,1.828,1.828,0,0,0-1.7-1.057c-2.326-.01-4.653,0-6.979-.012a15.24,15.24,0,0,1-1.829-.126,10.925,10.925,0,0,1-4.247-1.638,25.573,25.573,0,0,0-6.12-2.671,9.959,9.959,0,0,0-4.16-.483,10.373,10.373,0,0,0-6.267,3.531.92.92,0,0,0-.189.575c-.014,1.9-.009,3.81-.007,5.714C-504.578,93.735-504.565,93.87-504.556,94.044Zm19.8-28.26c1-2.568.438-4.69-1.962-5.894a13.149,13.149,0,0,0-4.721-1.22c-.709-.068-1.423-.084-2.179-.127a14.592,14.592,0,0,0,.532,4.525,5.19,5.19,0,0,0,4.427,4.047,7.3,7.3,0,0,0,2.874-.155c-.253-.318-.462-.6-.69-.864a10.29,10.29,0,0,0-3.489-2.64.765.765,0,0,1-.446-1.089.781.781,0,0,1,1.111-.286c.332.155.658.324.977.506A12.169,12.169,0,0,1-484.751,65.784Zm13.27,3.086c-.83.047-1.581.055-2.322.143a10.686,10.686,0,0,0-1.793.372c-3,.9-4.052,3.45-3.456,6.257.292-.406.557-.8.844-1.17a11.839,11.839,0,0,1,2.821-2.744c.506-.334.936-.3,1.207.1.254.375.112.779-.313,1.146a22.629,22.629,0,0,0-1.981,1.841c-.557.613-1,1.327-1.513,2.018,2.259.887,4.042.384,5.077-1.442A13.548,13.548,0,0,0-471.482,68.87Z" transform="translate(506.12 -57.043)" fill="#91b40d"/>
</svg>
